<?xml version="1.0" encoding="utf-8"?>
<!-- Generator: Adobe Illustrator 19.0.0, SVG Export Plug-In . SVG Version: 6.00 Build 0)  -->
<svg version="1.1" id="Layer_1" xmlns="http://www.w3.org/2000/svg" xmlns:xlink="http://www.w3.org/1999/xlink" x="0px" y="0px"
	 viewBox="-175 361.7 225.5 64" style="enable-background:new -175 361.7 225.5 64;" xml:space="preserve">
<style type="text/css">
	.st0{fill:#2D4B94;}
</style>
<g>
	<rect x="-43.3" y="364.2" class="st0" width="5.4" height="2.4"/>
	<path class="st0" d="M-55.1,405.7c-5.2,0-9.4-4.2-9.4-9.4v-32.1h5.4v30.3c0,3.2,2.6,5.8,5.8,5.8h1.8v5.4H-55.1z"/>
	<rect x="-43.3" y="371.8" class="st0" width="5.4" height="33.9"/>
	<path class="st0" d="M-29.8,405.7v-33.9h24.5c5.2,0,9.4,4.2,9.4,9.4v24.5h-5.4v-22.6c0-3.2-2.6-5.8-5.8-5.8h-17.2v28.5L-29.8,405.7
		L-29.8,405.7z"/>
	<path class="st0" d="M40.5,405.7v-8.4c0-3.2-2.6-5.8-5.8-5.8H17.5v14.2H12v-41.5h5.4V386h11.7v-4.8c0-5.2,4.2-9.4,9.4-9.4h7.5
		l-0.1,5.4h-5.5c-3.2,0-5.8,2.6-5.8,5.8v3h2c5.2,0,9.4,4.2,9.4,9.4v10.3H40.5z"/>
	<path class="st0" d="M-106.3,405.7v-41.5h5.4v7.6h19.1c5.2,0,9.4,4.2,9.4,9.4v24.5h-5.4v-22.6c0-3.2-2.6-5.8-5.8-5.8h-17.2v28.5
		L-106.3,405.7L-106.3,405.7z"/>
	<g>
		<g>
			<path class="st0" d="M-101.5,421.6c0,0.1-0.1,0.2-0.2,0.2h-0.6c-0.1,0-0.2-0.1-0.3-0.2l-1.8-3.3h-0.8v3.2c0,0.2-0.1,0.3-0.3,0.3
				h-0.5c-0.2,0-0.3-0.1-0.3-0.3v-7.1c0-0.2,0.1-0.3,0.3-0.3l2.9,0c0.5,0,0.9,0.2,1.2,0.5c0.3,0.3,0.5,0.7,0.5,1.2v0.7
				c0,0.5-0.2,0.9-0.5,1.2c-0.3,0.3-0.7,0.5-1.2,0.5h-0.1l1.7,3.1C-101.5,421.6-101.5,421.6-101.5,421.6z M-102.6,416
				c0-0.2-0.1-0.4-0.2-0.5c-0.1-0.1-0.3-0.2-0.4-0.2h-2.1v2.1h2.1c0.2,0,0.3-0.1,0.4-0.2c0.1-0.1,0.2-0.3,0.2-0.5L-102.6,416z"/>
		</g>
		<g>
			<path class="st0" d="M-95.6,421.9h-4c-0.2,0-0.3-0.1-0.3-0.3v-7.1c0-0.2,0.1-0.3,0.3-0.3h4c0.2,0,0.3,0.1,0.3,0.3v0.5
				c0,0.2-0.1,0.3-0.3,0.3h-3.2v2.1h2.2c0.2,0,0.3,0.1,0.3,0.3v0.5c0,0.2-0.1,0.3-0.3,0.3h-2.2v2.5h3.2c0.2,0,0.3,0.1,0.3,0.3v0.5
				C-95.4,421.8-95.4,421.9-95.6,421.9z"/>
		</g>
		<g>
			<path class="st0" d="M-89,420.1c0,0.5-0.2,0.9-0.5,1.2c-0.3,0.3-0.7,0.5-1.2,0.5h-2.9c-0.2,0-0.3-0.1-0.3-0.3v-7.1
				c0-0.2,0.1-0.3,0.3-0.3h2.9c0.5,0,0.8,0.2,1.2,0.5c0.3,0.3,0.5,0.7,0.5,1.2V420.1L-89,420.1L-89,420.1z M-90,416
				c0-0.2-0.1-0.4-0.2-0.5c-0.1-0.1-0.3-0.2-0.4-0.2l-2,0v5.6h2.1c0.2,0,0.3-0.1,0.4-0.2c0.1-0.1,0.2-0.3,0.2-0.5L-90,416z"/>
		</g>
		<g>
			<path class="st0" d="M-83,421.9h-4c-0.2,0-0.3-0.1-0.3-0.3v-7.1c0-0.2,0.1-0.3,0.3-0.3h4c0.2,0,0.3,0.1,0.3,0.3v0.5
				c0,0.2-0.1,0.3-0.3,0.3h-3.2v2.1h2.2c0.2,0,0.3,0.1,0.3,0.3v0.5c0,0.2-0.1,0.3-0.3,0.3h-2.2v2.5h3.2c0.2,0,0.3,0.1,0.3,0.3v0.5
				C-82.7,421.8-82.8,421.9-83,421.9z"/>
		</g>
		<g>
			<path class="st0" d="M-77.5,421.3c-0.4,0.4-1,0.6-1.6,0.6c-1.5,0-2.2-0.2-2.2-0.6v-0.3c0-0.1,0-0.1,0.1-0.2
				c0-0.1,0.1-0.1,0.2-0.1c0,0,0,0,0.1,0c0.5,0.1,1.1,0.2,1.9,0.2c0.3,0,0.6-0.1,0.8-0.3c0.3-0.2,0.4-0.5,0.4-0.9
				c0-0.2-0.2-0.5-0.5-0.7c-0.1,0-0.3-0.2-0.8-0.4c-0.8-0.4-1.3-0.7-1.4-0.8c-0.5-0.4-0.8-0.8-0.8-1.4c0-0.7,0.2-1.2,0.7-1.7
				c0.4-0.4,1-0.6,1.6-0.6c1.5,0,2.2,0.2,2.2,0.6v0.3c0,0.1,0,0.1-0.1,0.2c0,0.1-0.1,0.1-0.2,0.1c0,0,0,0-0.1,0
				c-0.5-0.1-1.1-0.2-1.9-0.2c-0.3,0-0.6,0.1-0.8,0.3c-0.3,0.2-0.4,0.5-0.4,0.9c0,0.2,0.2,0.5,0.5,0.7c0.1,0.1,0.3,0.2,0.8,0.4
				c0.7,0.3,1.2,0.6,1.4,0.8c0.5,0.4,0.8,0.9,0.8,1.4C-76.9,420.3-77.1,420.9-77.5,421.3z"/>
		</g>
		<g>
			<path class="st0" d="M-71.9,421.9h-0.5c-0.2,0-0.3-0.1-0.3-0.3v-7.1c0-0.2,0.1-0.3,0.3-0.3h0.5c0.2,0,0.3,0.1,0.3,0.3v7.1
				C-71.6,421.8-71.7,421.9-71.9,421.9z"/>
		</g>
		<g>
			<path class="st0" d="M-63.7,421.3c-0.4,0.4-1,0.6-1.6,0.6c-1.5,0-2.2-0.2-2.2-0.6v-0.3c0-0.1,0-0.1,0.1-0.2
				c0.1-0.1,0.1-0.1,0.2-0.1c0,0,0,0,0.1,0c0.5,0.1,1.1,0.2,1.9,0.2c0.3,0,0.6-0.1,0.8-0.3c0.3-0.2,0.4-0.5,0.4-0.9
				c0-0.2-0.1-0.5-0.5-0.7c-0.1,0-0.3-0.2-0.8-0.4c-0.8-0.4-1.3-0.7-1.4-0.8c-0.5-0.4-0.8-0.8-0.8-1.4c0-0.7,0.2-1.2,0.7-1.7
				c0.4-0.4,1-0.6,1.6-0.6c1.5,0,2.2,0.2,2.2,0.6v0.3c0,0.1,0,0.1-0.1,0.2c0,0.1-0.1,0.1-0.2,0.1c0,0,0,0-0.1,0
				c-0.5-0.1-1.1-0.2-1.9-0.2c-0.3,0-0.6,0.1-0.8,0.3c-0.3,0.2-0.4,0.5-0.4,0.9c0,0.2,0.2,0.5,0.5,0.7c0.1,0.1,0.3,0.2,0.8,0.4
				c0.7,0.3,1.2,0.6,1.4,0.8c0.5,0.4,0.8,0.9,0.8,1.4C-63,420.3-63.3,420.9-63.7,421.3z"/>
		</g>
		<g>
			<path class="st0" d="M-56.7,420.1c0,0.5-0.2,0.9-0.5,1.2c-0.3,0.3-0.7,0.5-1.2,0.5h-1.5c-0.5,0-0.8-0.2-1.2-0.5
				c-0.3-0.3-0.5-0.7-0.5-1.2V416c0-0.5,0.2-0.9,0.5-1.2c0.3-0.3,0.7-0.5,1.2-0.5h1.5c0.5,0,0.8,0.2,1.2,0.5
				c0.3,0.3,0.5,0.7,0.5,1.2L-56.7,420.1L-56.7,420.1z M-57.8,416c0-0.2-0.1-0.4-0.2-0.5c-0.1-0.1-0.3-0.2-0.4-0.2h-1.5
				c-0.2,0-0.3,0.1-0.4,0.2c-0.1,0.1-0.2,0.3-0.2,0.5v4.2c0,0.2,0.1,0.4,0.2,0.5c0.1,0.1,0.3,0.2,0.4,0.2h1.5c0.2,0,0.3-0.1,0.4-0.2
				c0.1-0.1,0.2-0.3,0.2-0.5L-57.8,416L-57.8,416L-57.8,416z"/>
		</g>
		<g>
			<path class="st0" d="M-50.7,415.3h-3.2v2.1h2.2c0.2,0,0.3,0.1,0.3,0.3v0.5c0,0.2-0.1,0.3-0.3,0.3h-2.2v3.2c0,0.2-0.1,0.3-0.3,0.3
				h-0.5c-0.2,0-0.3-0.1-0.3-0.3v-7.1c0-0.2,0.1-0.3,0.3-0.3h4c0.2,0,0.3,0.1,0.3,0.3v0.5C-50.5,415.2-50.6,415.3-50.7,415.3z"/>
		</g>
		<g>
			<path class="st0" d="M-44.7,415.2h-1.6v6.4c0,0.2-0.1,0.3-0.3,0.3h-0.5c-0.2,0-0.3-0.1-0.3-0.3v-6.4h-1.6c-0.2,0-0.3-0.1-0.3-0.3
				v-0.5c0-0.2,0.1-0.3,0.3-0.3h4.2c0.2,0,0.3,0.1,0.3,0.3v0.5C-44.4,415.1-44.5,415.2-44.7,415.2z"/>
		</g>
		<g>
			<path class="st0" d="M-36.1,421.6c0,0.1-0.1,0.2-0.3,0.2h-0.8c-0.1,0-0.2-0.1-0.3-0.2l-1.3-5.1l-1.3,5.1c0,0.1-0.1,0.2-0.3,0.2
				h-0.9c-0.1,0-0.2-0.1-0.3-0.2l-1.8-7.1c0-0.1,0-0.1,0-0.2c0-0.1,0.1-0.1,0.2-0.1h0.6c0.1,0,0.2,0.1,0.3,0.2l1.4,5.6l1.4-5.6
				c0-0.1,0.1-0.2,0.3-0.2h0.6c0.1,0,0.2,0.1,0.3,0.2l1.4,5.6l1.4-5.6c0-0.1,0.1-0.2,0.3-0.2h0.6c0.1,0,0.1,0,0.2,0.1
				c0,0.1,0.1,0.2,0,0.2L-36.1,421.6z"/>
		</g>
		<g>
			<path class="st0" d="M-28.7,421.6c0,0.2-0.1,0.2-0.2,0.2h-0.6c-0.1,0-0.2-0.1-0.3-0.2l-0.5-1.9h-2.2l-0.5,1.9
				c0,0.1-0.1,0.2-0.3,0.2h-0.6c-0.2,0-0.2-0.1-0.2-0.2c0,0,0-0.1,0-0.1l2-7.1c0-0.1,0.1-0.2,0.3-0.2h0.8c0.1,0,0.2,0.1,0.3,0.2
				L-28.7,421.6C-28.7,421.6-28.7,421.6-28.7,421.6z M-31.4,416l-0.8,2.8h1.6L-31.4,416z"/>
		</g>
		<g>
			<path class="st0" d="M-22.4,421.6c0,0.1-0.1,0.2-0.2,0.2h-0.6c-0.1,0-0.2-0.1-0.3-0.2l-1.8-3.3h-0.8v3.2c0,0.2-0.1,0.3-0.3,0.3
				h-0.5c-0.2,0-0.3-0.1-0.3-0.3v-7.1c0-0.2,0.1-0.3,0.3-0.3l2.9,0c0.5,0,0.8,0.2,1.2,0.5c0.3,0.3,0.5,0.7,0.5,1.2v0.7
				c0,0.5-0.2,0.9-0.5,1.2c-0.3,0.3-0.7,0.5-1.2,0.5h-0.1l1.7,3.1C-22.4,421.6-22.4,421.6-22.4,421.6z M-23.5,416
				c0-0.2-0.1-0.4-0.2-0.5c-0.1-0.1-0.3-0.2-0.4-0.2h-2.1v2.1h2.1c0.2,0,0.3-0.1,0.4-0.2c0.1-0.1,0.2-0.3,0.2-0.5L-23.5,416z"/>
		</g>
		<g>
			<path class="st0" d="M-16.5,421.9h-4c-0.2,0-0.3-0.1-0.3-0.3v-7.1c0-0.2,0.1-0.3,0.3-0.3h4c0.2,0,0.3,0.1,0.3,0.3v0.5
				c0,0.2-0.1,0.3-0.3,0.3h-3.2v2.1h2.2c0.2,0,0.3,0.1,0.3,0.3v0.5c0,0.2-0.1,0.3-0.3,0.3h-2.2v2.5h3.2c0.2,0,0.3,0.1,0.3,0.3v0.5
				C-16.2,421.8-16.3,421.9-16.5,421.9z"/>
		</g>
		<g>
			<path class="st0" d="M-9.5,421.9H-12c-0.2,0-0.3-0.1-0.3-0.3v-0.5c0-0.2,0.1-0.3,0.3-0.3h0.7v-5.6H-12c-0.2,0-0.3-0.1-0.3-0.3
				v-0.5c0-0.2,0.1-0.3,0.3-0.3h2.5c0.2,0,0.3,0.1,0.3,0.3v0.5c0,0.2-0.1,0.3-0.3,0.3h-0.7v5.6h0.7c0.2,0,0.3,0.1,0.3,0.3v0.5
				C-9.2,421.8-9.3,421.9-9.5,421.9z"/>
			<path class="st0" d="M-2.8,421.9h-0.5c-0.1,0-0.1,0-0.2-0.1l-2.9-5.3v5.1c0,0.2-0.1,0.3-0.3,0.3h-0.6c-0.2,0-0.3-0.1-0.3-0.3
				v-7.1c0-0.2,0.1-0.3,0.3-0.3h0.6c0.1,0,0.2,0.1,0.2,0.2l2.9,5.2v-5.1c0-0.2,0.1-0.3,0.3-0.3h0.5c0.2,0,0.3,0.1,0.3,0.3v7.1
				C-2.6,421.8-2.6,421.9-2.8,421.9z"/>
		</g>
		<g>
			<path class="st0" d="M4,420.1c0,0.5-0.2,0.9-0.5,1.2c-0.3,0.3-0.7,0.5-1.2,0.5h-2.9c-0.2,0-0.3-0.1-0.3-0.3v-7.1
				c0-0.2,0.1-0.3,0.3-0.3h2.9c0.5,0,0.9,0.2,1.2,0.5C3.8,415,4,415.5,4,416L4,420.1L4,420.1L4,420.1z M2.9,416
				c0-0.2-0.1-0.4-0.2-0.5c-0.1-0.1-0.3-0.2-0.4-0.2l-2,0v5.6h2c0.2,0,0.3-0.1,0.4-0.2c0.1-0.1,0.2-0.3,0.2-0.5L2.9,416z"/>
		</g>
		<g>
			<path class="st0" d="M6.7,420.1c0,0.2,0.1,0.4,0.2,0.5c0.1,0.1,0.3,0.2,0.4,0.2h1.5c0.1,0,0.3-0.1,0.4-0.2
				c0.1-0.1,0.2-0.3,0.2-0.5v-5.6c0-0.2,0.1-0.3,0.3-0.3h0.5c0.2,0,0.3,0.1,0.3,0.3v5.6c0,0.5-0.2,0.9-0.5,1.2
				c-0.3,0.3-0.7,0.5-1.2,0.5H7.3c-0.5,0-0.8-0.2-1.2-0.5c-0.3-0.3-0.5-0.8-0.5-1.2v-5.6c0-0.2,0.1-0.3,0.3-0.3h0.5
				c0.1,0,0.1,0,0.1,0.1c0.1,0.1,0.1,0.2,0.1,0.2L6.7,420.1L6.7,420.1z"/>
		</g>
		<g>
			<path class="st0" d="M15.9,421.3c-0.4,0.4-1,0.6-1.6,0.6c-1.5,0-2.2-0.2-2.2-0.6v-0.3c0-0.1,0-0.1,0.1-0.2
				c0.1-0.1,0.1-0.1,0.2-0.1c0,0,0,0,0.1,0c0.5,0.1,1.1,0.2,1.9,0.2c0.3,0,0.6-0.1,0.8-0.3c0.3-0.2,0.4-0.5,0.4-0.9
				c0-0.2-0.1-0.5-0.5-0.7c-0.1,0-0.3-0.2-0.8-0.4c-0.8-0.4-1.3-0.7-1.4-0.8c-0.5-0.4-0.8-0.8-0.8-1.4c0-0.7,0.2-1.2,0.7-1.7
				c0.4-0.4,1-0.6,1.6-0.6c1.5,0,2.2,0.2,2.2,0.6v0.3c0,0.1,0,0.1-0.1,0.2c0,0.1-0.1,0.1-0.2,0.1c0,0,0,0-0.1,0
				c-0.5-0.1-1.1-0.2-1.9-0.2c-0.3,0-0.6,0.1-0.8,0.3c-0.3,0.2-0.4,0.5-0.4,0.9c0,0.2,0.2,0.5,0.5,0.7c0.1,0.1,0.3,0.2,0.8,0.4
				c0.7,0.3,1.2,0.6,1.4,0.8c0.5,0.4,0.8,0.9,0.8,1.4C16.6,420.3,16.4,420.9,15.9,421.3z"/>
		</g>
		<g>
			<path class="st0" d="M22.4,415.2h-1.6v6.4c0,0.2-0.1,0.3-0.3,0.3H20c-0.2,0-0.3-0.1-0.3-0.3v-6.4h-1.6c-0.2,0-0.3-0.1-0.3-0.3
				v-0.5c0-0.2,0.1-0.3,0.3-0.3h4.2c0.2,0,0.3,0.1,0.3,0.3v0.5C22.6,415.1,22.5,415.2,22.4,415.2z"/>
		</g>
		<g>
			<path class="st0" d="M29,421.6c0,0.1-0.1,0.2-0.2,0.2h-0.6c-0.1,0-0.2-0.1-0.3-0.2l-1.8-3.3h-0.8v3.2c0,0.2-0.1,0.3-0.3,0.3h-0.6
				c-0.2,0-0.3-0.1-0.3-0.3v-7.1c0-0.2,0.1-0.3,0.3-0.3l2.9,0c0.5,0,0.9,0.2,1.2,0.5c0.3,0.3,0.5,0.7,0.5,1.2v0.7
				c0,0.5-0.2,0.9-0.5,1.2c-0.3,0.3-0.7,0.5-1.2,0.5h-0.1l1.7,3.1C29,421.6,29,421.6,29,421.6z M27.9,416c0-0.2-0.1-0.4-0.2-0.5
				c-0.1-0.1-0.3-0.2-0.4-0.2h-2v2.1h2c0.2,0,0.3-0.1,0.4-0.2c0.1-0.1,0.2-0.3,0.2-0.5L27.9,416z"/>
		</g>
		<g>
			<path class="st0" d="M33,421.9h-2.5c-0.2,0-0.3-0.1-0.3-0.3v-0.5c0-0.2,0.1-0.3,0.3-0.3h0.7v-5.6h-0.7c-0.2,0-0.3-0.1-0.3-0.3
				v-0.5c0-0.2,0.1-0.3,0.3-0.3H33c0.2,0,0.3,0.1,0.3,0.3v0.5c0,0.2-0.1,0.3-0.3,0.3h-0.7v5.6H33c0.2,0,0.3,0.1,0.3,0.3v0.5
				C33.3,421.8,33.2,421.9,33,421.9z"/>
		</g>
		<g>
			<path class="st0" d="M40.1,421.6c0,0.2-0.1,0.2-0.2,0.2h-0.6c-0.1,0-0.2-0.1-0.3-0.2l-0.5-1.9h-2.2l-0.5,1.9
				c0,0.1-0.1,0.2-0.3,0.2h-0.6c-0.2,0-0.2-0.1-0.2-0.2c0,0,0-0.1,0-0.1l2-7.1c0-0.1,0.1-0.2,0.3-0.2h0.8c0.1,0,0.2,0.1,0.3,0.2
				L40.1,421.6C40.1,421.6,40.1,421.6,40.1,421.6z M37.4,416l-0.8,2.8h1.6L37.4,416z"/>
		</g>
		<g>
			<path class="st0" d="M45.6,421.9h-3.8c-0.2,0-0.3-0.1-0.3-0.3v-7.1c0-0.2,0.1-0.3,0.3-0.3h0.5c0.2,0,0.3,0.1,0.3,0.3v6.3h2.9
				c0.2,0,0.3,0.1,0.3,0.3v0.5C45.9,421.8,45.8,421.9,45.6,421.9z"/>
		</g>
	</g>
	<g>
		<g>
			<path class="st0" d="M-125.1,400.4c0,1.3-1,2.3-2.3,2.3c-1.3,0-2.3-1-2.3-2.3v-16.3c0-0.6-0.2-1.1-0.6-1.5
				c-0.4-0.4-1-0.7-1.6-0.7c-0.6,0-1.1,0.2-1.5,0.7c-0.4,0.4-0.7,1-0.7,1.5v4.5c0,1.8-0.7,3.5-2,4.7c-1.3,1.3-3,2-4.7,2h-4.8
				c-0.6,0-1.1,0.2-1.5,0.7c-0.4,0.4-0.6,1-0.6,1.5v4.4c0,1.8-0.7,3.5-2,4.8c-1.3,1.3-3,2-4.8,2c-1.8,0-3.5-0.7-4.8-2
				c-1.3-1.3-2-3-2-4.8v-15.9c0-1.3,1-2.3,2.3-2.3c1.3,0,2.3,1,2.3,2.3v15.9c0,0.6,0.2,1.1,0.6,1.6c0.4,0.4,1,0.6,1.6,0.6
				c1.2,0,2.2-1,2.2-2.2v-4.4c0-3.7,3-6.7,6.7-6.7h4.8c1.2,0,2.2-1,2.2-2.2v-4.5c0-3.7,3-6.7,6.7-6.7c1.8,0,3.5,0.7,4.8,2
				c1.3,1.3,2,3,2,4.7L-125.1,400.4L-125.1,400.4z"/>
			<path class="st0" d="M-124,408.3c0,1.9-1.5,3.3-3.3,3.3c-1.8,0-3.4-1.4-3.4-3.3c0-1.8,1.5-3.3,3.3-3.3
				C-125.6,404.9-124,406.4-124,408.3"/>
			<path class="st0" d="M-155.5,377.8c0,1.8-1.5,3.3-3.3,3.3c-1.8,0-3.4-1.4-3.4-3.3c0-1.9,1.5-3.3,3.3-3.3
				C-157,374.5-155.5,376-155.5,377.8"/>
		</g>
		<g>
			<path class="st0" d="M-125.5,364.6c-0.2-0.2-0.5-0.4-0.8-0.4h-40.6c-2.8,0-5.2,2.3-5.2,5.1v47.5c0,2.8,2.3,5.1,5.2,5.1h3.4
				c0.6,0,1-0.5,1-1c0-0.6-0.5-1-1-1h-3.4c-1.7,0-3.1-1.3-3.1-3.1v-47.5c0-1.7,1.3-3.1,3.1-3.1h40.6c0.6,0,1-0.4,1-1
				C-125.3,365-125.4,364.8-125.5,364.6z"/>
			<path class="st0" d="M-119.4,364.2h-2.3c-0.6,0-1,0.5-1,1c0,0.6,0.5,1,1,1h2.3c1.7,0,3.1,1.3,3.1,3.1v47.5c0,1.7-1.3,3.1-3.1,3.1
				h-39.5c-0.6,0-1,0.5-1,1c0,0.6,0.5,1,1,1h39.5c2.8,0,5.2-2.3,5.2-5.1v-47.5C-114.2,366.5-116.6,364.2-119.4,364.2z"/>
		</g>
	</g>
</g>
</svg>
